<?xml version="1.0" standalone="no"?>
<!DOCTYPE svg PUBLIC "-//W3C//DTD SVG 20010904//EN"
 "http://www.w3.org/TR/2001/REC-SVG-20010904/DTD/svg10.dtd">
<svg version="1.0" xmlns="http://www.w3.org/2000/svg"
 width="900.000000pt" height="600.000000pt" viewBox="0 0 900.000000 600.000000"
 preserveAspectRatio="xMidYMid meet">
<metadata>
Created by potrace 1.16, written by Peter Selinger 2001-2019
</metadata>
<g transform="translate(0.000000,600.000000) scale(0.100000,-0.100000)"
fill="#FF0101" stroke="none">
<path d="M4281 5990 c-800 -67 -1494 -412 -2026 -1007 -412 -461 -665 -1040
-736 -1683 -15 -135 -14 -465 0 -600 80 -721 383 -1349 887 -1841 250 -243
486 -408 789 -555 425 -205 824 -296 1300 -297 505 -1 933 102 1381 332 292
150 503 307 754 560 239 240 395 456 544 751 218 431 319 860 320 1350 0 281
-28 508 -95 760 -190 720 -633 1335 -1259 1748 -299 198 -706 364 -1056 432
-247 47 -583 68 -803 50z m1209 -2505 l975 -975 -255 -255 c-140 -140 -259
-255 -265 -255 -5 0 -332 322 -725 715 l-715 715 -725 -725 -725 -725 -257
257 -258 258 982 982 c541 541 985 983 988 983 3 0 444 -439 980 -975z"/>
</g>
</svg>
