<?xml version="1.0" standalone="no"?>
<!DOCTYPE svg PUBLIC "-//W3C//DTD SVG 20010904//EN"
 "http://www.w3.org/TR/2001/REC-SVG-20010904/DTD/svg10.dtd">
<svg version="1.0" xmlns="http://www.w3.org/2000/svg"
 width="728.000000pt" height="653.000000pt" viewBox="0 0 728.000000 653.000000"
 preserveAspectRatio="xMidYMid meet">
<metadata>
Created by potrace 1.16, written by Peter Selinger 2001-2019
</metadata>
<g transform="translate(0.000000,653.000000) scale(0.100000,-0.100000)"
fill="#000000" stroke="none">
<path d="M3343 6184 c-326 -32 -654 -116 -917 -233 -23 -10 -62 -28 -89 -39
-26 -12 -93 -47 -150 -78 -630 -353 -1110 -936 -1325 -1614 -166 -523 -199
-1050 -96 -1559 115 -574 376 -1058 793 -1471 239 -238 442 -382 757 -541 467
-235 1001 -344 1512 -310 518 36 971 183 1415 462 538 338 981 886 1177 1455
224 651 204 1442 -54 2136 -142 381 -341 686 -632 968 -423 410 -963 686
-1554 795 -242 44 -571 56 -837 29z m687 -259 c313 -48 581 -132 845 -265 389
-197 686 -436 928 -751 325 -422 514 -1033 518 -1668 1 -285 -20 -468 -82
-713 -201 -797 -853 -1487 -1689 -1788 -826 -297 -1770 -163 -2490 353 -568
407 -946 1010 -1065 1700 -57 333 -46 718 30 1062 73 332 166 569 327 835 442
729 1184 1177 2073 1250 143 12 482 3 605 -15z"/>
<path d="M4930 4650 c-14 -4 -313 -122 -665 -263 -352 -140 -908 -361 -1235
-491 -327 -131 -620 -248 -650 -261 -30 -13 -120 -49 -200 -80 -475 -185 -516
-206 -541 -272 -13 -36 0 -85 35 -122 36 -39 93 -67 301 -146 83 -31 188 -72
235 -90 47 -18 134 -52 194 -75 60 -24 121 -54 136 -69 32 -29 30 -24 170
-551 61 -229 100 -357 116 -382 31 -49 88 -68 142 -48 42 15 94 49 374 251 75
55 141 99 146 99 5 0 27 -13 48 -28 41 -29 346 -237 642 -436 96 -64 186 -123
202 -131 35 -18 96 -19 129 -2 55 27 58 41 170 627 250 1313 361 1890 406
2107 25 123 45 237 45 255 0 24 -10 41 -45 75 -39 37 -51 43 -88 42 -23 0 -53
-4 -67 -9z m-615 -577 c-61 -57 -498 -478 -690 -664 -77 -74 -277 -268 -445
-429 l-304 -293 -35 133 c-45 170 -62 191 -201 240 -52 18 -169 62 -260 97
-91 35 -180 70 -199 77 -37 14 -153 -34 1369 570 327 130 636 254 685 275 125
54 143 53 80 -6z m419 -125 c-18 -95 -42 -220 -53 -278 -11 -58 -67 -355 -125
-660 -59 -305 -120 -629 -138 -720 -17 -91 -40 -213 -52 -273 l-21 -107 -145
98 c-80 54 -230 156 -335 227 -104 70 -286 193 -403 273 -117 79 -212 147
-210 152 2 4 82 83 178 175 96 93 231 223 300 289 69 67 235 227 370 356 260
250 416 400 570 548 52 51 95 92 96 92 0 0 -14 -78 -32 -172z m-1529 -1605
c17 -12 28 -23 25 -26 -27 -24 -202 -147 -208 -147 -7 0 -102 339 -102 364 0
5 198 -127 285 -191z"/>
</g>
</svg>
