<svg width="21" height="20" viewBox="0 0 21 20" fill="none" xmlns="http://www.w3.org/2000/svg">
<path d="M9.99829 0.501625C4.47423 0.603832 0.0806865 5.04754 0.1802 10.426C0.259832 14.73 3.19187 18.3268 7.1875 19.5401C7.68911 19.6225 7.86683 19.3176 7.86205 19.0591C7.85777 18.8279 7.8381 18.2152 7.81891 17.4034C5.04859 18.0421 4.42698 16.159 4.42698 16.159C3.95126 15.0434 3.28831 14.7549 3.28831 14.7549C2.37146 14.1679 3.34736 14.1622 3.34736 14.1622C4.35261 14.2114 4.89733 15.1374 4.89733 15.1374C5.8164 16.6101 7.25735 16.1529 7.82432 15.8938C7.90265 15.2619 8.15217 14.8285 8.43345 14.5796C6.20849 14.377 3.85922 13.5827 3.79018 9.8511C3.77051 8.78813 4.14187 7.91208 4.77082 7.21881C4.65379 6.97477 4.29802 5.99072 4.81061 4.63946C4.81061 4.63946 5.64314 4.36297 7.57862 5.58714C8.37448 5.35594 9.22235 5.23285 10.0721 5.21217C10.9221 5.2014 11.7739 5.29305 12.5778 5.49464C14.4541 4.19995 15.2963 4.44545 15.2963 4.44545C15.8585 5.77682 15.5394 6.77336 15.444 7.02134C16.094 7.69094 16.4975 8.55265 16.5172 9.61563C16.5864 13.3571 14.2645 14.2238 12.0443 14.5045C12.3997 14.7904 12.7357 15.3815 12.7526 16.2942C12.7767 17.5975 12.7836 18.645 12.7894 18.9614C12.7941 19.2166 12.9747 19.5181 13.4854 19.4112C17.4619 18.0586 20.2563 14.3534 20.1768 10.056C20.0773 4.67756 15.5198 0.399465 9.99829 0.501625Z" fill="#212121"/>
</svg>
