<svg width="21" height="21" viewBox="0 0 21 21" fill="none" xmlns="http://www.w3.org/2000/svg">
<path d="M20.0029 10.0692C19.9254 4.50681 15.4175 0.0619898 9.93126 0.138501C4.44507 0.215012 0.0628536 4.78381 0.140427 10.3462C0.218001 15.9086 4.72592 20.3534 10.2121 20.2769C15.6983 20.2004 20.0805 15.6316 20.0029 10.0692ZM9.93268 15.6724L6.10534 6.01551C5.9385 5.56715 6.20198 5.16986 6.87603 5.30649L6.87519 5.30567L14.5792 6.85158C15.1255 6.96649 15.2625 7.29273 15.0124 7.7553L13.2176 10.2981L14.3882 11.4962C14.5225 11.6286 14.6358 11.7403 14.6395 12.0005L12.1103 11.857L7.88817 7.24954C7.70906 7.04894 7.61321 7.2987 7.7924 7.56392L11.453 13.2795L10.723 15.7755C10.5617 16.3174 10.1985 16.3342 9.93268 15.6724V15.6724Z" fill="black"/>
</svg>
